D:\school\WTK\thesis\model\3dpredictsim\Results\batch_windlass\Pog_s1_tmt_bCst_d05_k1000_WL30_ig24_act_TTM_GRF.mot
nRows=27
nColumns=19

name D:\school\WTK\thesis\model\3dpredictsim\Results\batch_windlass\Pog_s1_tmt_bCst_d05_k1000_WL30_ig24_act_TTM_GRF.mot
datacolumns 19
datarows 27
range 0.7182712805 1.0917723464
endheader
time 	ground_force_vx	ground_force_vy	ground_force_vz	ground_force_px	ground_force_py	ground_force_pz	1_ground_force_vx	1_ground_force_vy	1_ground_force_vz	1_ground_force_px	1_ground_force_py	1_ground_force_pz	ground_torque_x	ground_torque_y	ground_torque_z	1_ground_torque_x	1_ground_torque_y	1_ground_torque_z
        0.7182712805	      122.7920142759	      420.3006781609	       -0.4218658224	        0.4940292802	        0.0000000000	        0.0496559990	      -45.5064241742	       34.1030663501	       -3.6752970962	        1.1538129852	        0.0000000000	       -0.0563144120	        0.0000000000	        0.0000000000	        0.0000000000	        0.0000000000	        0.0000000000	        0.0000000000	
        0.7326367061	       89.7688160524	      332.3103343613	        3.2515405994	        0.5031965438	        0.0000000000	        0.0483717854	     -161.4884348831	      154.5686653304	       -6.3423744378	        1.1639626401	        0.0000000000	       -0.0552848396	        0.0000000000	        0.0000000000	        0.0000000000	        0.0000000000	        0.0000000000	        0.0000000000	
        0.7470021317	       75.7339554583	      261.1962719000	       10.9711967473	        0.5116484344	        0.0000000000	        0.0472902217	     -120.0183506561	      433.6547751189	        5.2829188416	        1.1706312692	        0.0000000000	       -0.0548140994	        0.0000000000	        0.0000000000	        0.0000000000	        0.0000000000	        0.0000000000	        0.0000000000	
        0.7613675573	       77.1441740920	      210.0667901582	       18.8560068593	        0.5124201190	        0.0000000000	        0.0477945219	     -153.7226251677	      669.7929732265	       16.1894228390	        1.1774831469	        0.0000000000	       -0.0558110856	        0.0000000000	        0.0000000000	        0.0000000000	        0.0000000000	        0.0000000000	        0.0000000000	
        0.7757329829	       71.7389749212	      144.0998437180	       30.1902742485	        0.5130166028	        0.0000000000	        0.0489748245	     -211.9323766697	      863.1944339519	       18.5814599406	        1.1895436950	        0.0000000000	       -0.0586342774	        0.0000000000	        0.0000000000	        0.0000000000	        0.0000000000	        0.0000000000	        0.0000000000	
        0.7900984086	       36.7040062605	       45.4122729086	       23.1630937460	        0.5146609158	        0.0000000000	        0.0512699049	     -216.2912022853	      890.1223020817	       14.1261049453	        1.1967432746	        0.0000000000	       -0.0600402953	        0.0000000000	        0.0000000000	        0.0000000000	        0.0000000000	        0.0000000000	        0.0000000000	
        0.8044638342	       -0.0000000001	       -0.0000000001	       -0.0000000001	        0.0000000000	        0.0000000000	        0.0000000000	     -195.1408354221	      847.6536377019	       10.4722471769	        1.2022010697	        0.0000000000	       -0.0605174756	        0.0000000000	        0.0000000000	        0.0000000000	        0.0000000000	        0.0000000000	        0.0000000000	
        0.8188292598	        0.0000000000	       -0.0000000000	       -0.0000000000	        0.0000000000	        0.0000000000	        0.0000000000	     -173.4985728460	      812.5298061585	       10.8996213613	        1.2072352127	        0.0000000000	       -0.0603820574	        0.0000000000	        0.0000000000	        0.0000000000	        0.0000000000	        0.0000000000	        0.0000000000	
        0.8331946854	        0.0000000000	       -0.0000000000	        0.0000000000	        0.0000000000	        0.0000000000	        0.0000000000	     -154.0374867164	      778.4869743772	       10.8386564541	        1.2123168306	        0.0000000000	       -0.0599941334	        0.0000000000	        0.0000000000	        0.0000000000	        0.0000000000	        0.0000000000	        0.0000000000	
        0.8475601110	        0.0000000483	       -0.0000000320	        0.0000000081	        0.0000000000	        0.0000000000	        0.0000000000	     -128.1817187356	      731.1328629169	        8.3189346151	        1.2188206587	        0.0000000000	       -0.0594186087	        0.0000000000	        0.0000000000	        0.0000000000	        0.0000000000	        0.0000000000	        0.0000000000	
        0.8619255366	        0.0000000002	       -0.0000000002	        0.0000000000	        0.0000000000	        0.0000000000	        0.0000000000	     -108.4150550127	      683.9429796959	        6.6749156664	        1.2242117177	        0.0000000000	       -0.0590222302	        0.0000000000	        0.0000000000	        0.0000000000	        0.0000000000	        0.0000000000	        0.0000000000	
        0.8762909622	        0.0000000000	       -0.0000000000	       -0.0000000000	        0.0000000000	        0.0000000000	        0.0000000000	      -94.7748841538	      655.6105919124	        7.5955119452	        1.2289409529	        0.0000000000	       -0.0587510747	        0.0000000000	        0.0000000000	        0.0000000000	        0.0000000000	        0.0000000000	        0.0000000000	
        0.8906563878	        0.0000000000	       -0.0000000000	       -0.0000000000	        0.0000000000	        0.0000000000	        0.0000000000	      -80.9542792756	      634.8296590973	       10.7141573248	        1.2332361568	        0.0000000000	       -0.0585799223	        0.0000000000	        0.0000000000	        0.0000000000	        0.0000000000	        0.0000000000	        0.0000000000	
        0.9050218134	        0.0000000003	       -0.0000000002	       -0.0000000000	        0.0000000000	        0.0000000000	        0.0000000000	      -68.0749003154	      612.7313123818	       11.8605964273	        1.2374108797	        0.0000000000	       -0.0585649539	        0.0000000000	        0.0000000000	        0.0000000000	        0.0000000000	        0.0000000000	        0.0000000000	
        0.9193872390	       -0.0000000032	        0.0000000017	        0.0000000001	        0.0000000000	        0.0000000000	        0.0000000000	      -57.2687535040	      593.8034054612	       13.1138483594	        1.2414419101	        0.0000000000	       -0.0586413536	        0.0000000000	        0.0000000000	        0.0000000000	        0.0000000000	        0.0000000000	        0.0000000000	
        0.9337526647	       -0.0000000028	        0.0000000014	       -0.0000000000	        0.0000000000	        0.0000000000	        0.0000000000	      -48.2657331935	      579.7091273406	       13.9434666720	        1.2455077770	        0.0000000000	       -0.0587850779	        0.0000000000	        0.0000000000	        0.0000000000	        0.0000000000	        0.0000000000	        0.0000000000	
        0.9481180903	       -0.0000000055	        0.0000000026	       -0.0000000001	        0.0000000000	        0.0000000000	        0.0000000000	      -40.9429228214	      570.8346053696	       14.8332475893	        1.2496603118	        0.0000000000	       -0.0589631555	        0.0000000000	        0.0000000000	        0.0000000000	        0.0000000000	        0.0000000000	        0.0000000000	
        0.9624835159	       -0.0000000226	        0.0000000099	       -0.0000000006	        0.0000000000	        0.0000000000	        0.0000000000	      -34.3811065962	      565.2741532640	       15.6620397711	        1.2537643159	        0.0000000000	       -0.0591763534	        0.0000000000	        0.0000000000	        0.0000000000	        0.0000000000	        0.0000000000	        0.0000000000	
        0.9768489415	       -0.0000001629	        0.0000000684	       -0.0000000053	        0.0000000000	        0.0000000000	        0.0000000000	      -29.3570611667	      563.8829132352	       16.6772932237	        1.2580444701	        0.0000000000	       -0.0593883055	        0.0000000000	        0.0000000000	        0.0000000000	        0.0000000000	        0.0000000000	        0.0000000000	
        0.9912143671	       -0.0000016615	        0.0000006744	       -0.0000000549	        0.0000000000	        0.0000000000	        0.0000000000	      -25.4911321833	      567.8296940090	       17.9863255225	        1.2627508820	        0.0000000000	       -0.0595515706	        0.0000000000	        0.0000000000	        0.0000000000	        0.0000000000	        0.0000000000	        0.0000000000	
        1.0055797927	       -0.0000195871	        0.0000077361	       -0.0000006116	        0.0000000000	        0.0000000000	        0.0000000000	      -21.2912778456	      574.5901530113	       19.5720172548	        1.2680210256	        0.0000000000	       -0.0596286015	        0.0000000000	        0.0000000000	        0.0000000000	        0.0000000000	        0.0000000000	        0.0000000000	
        1.0199452183	       -0.0002296926	        0.0000888162	       -0.0000065160	        0.0000000000	        0.0000000000	        0.0000000000	      -17.4695076820	      580.7011123735	       21.3228235083	        1.2737301705	        0.0000000000	       -0.0596144089	        0.0000000000	        0.0000000000	        0.0000000000	        0.0000000000	        0.0000000000	        0.0000000000	
        1.0343106439	       -0.0023239286	        0.0008834950	       -0.0000584371	        0.0000000000	        0.0000000000	        0.0000000000	      -14.0923552214	      585.4013225015	       22.9244563588	        1.2795639637	        0.0000000000	       -0.0595447335	        0.0000000000	        0.0000000000	        0.0000000000	        0.0000000000	        0.0000000000	        0.0000000000	
        1.0486760695	       -0.0174995976	        0.0065680642	       -0.0003916590	        0.0000000000	        0.0000000000	        0.0000000000	      -10.5857492029	      588.6433445703	       24.0690384897	        1.2854467282	        0.0000000000	       -0.0594328465	        0.0000000000	        0.0000000000	        0.0000000000	        0.0000000000	        0.0000000000	        0.0000000000	
        1.0630414951	       -0.0863544656	        0.0321012167	       -0.0017612234	        0.0000000000	        0.0000000000	        0.0000000000	       -7.2704148881	      588.6041925582	       24.9989805524	        1.2912731628	        0.0000000000	       -0.0592873663	        0.0000000000	        0.0000000000	        0.0000000000	        0.0000000000	        0.0000000000	        0.0000000000	
        1.0774069208	       -0.2653106046	        0.0979502956	       -0.0051149841	        0.0000000000	        0.0000000000	        0.0000000000	       -4.1934654802	      583.4441175581	       25.8083219331	        1.2969375175	        0.0000000000	       -0.0591173062	        0.0000000000	        0.0000000000	        0.0000000000	        0.0000000000	        0.0000000000	        0.0000000000	
        1.0917723464	       -0.5388078580	        0.1978502106	       -0.0102810399	        0.0000000000	        0.0000000000	        0.0000000000	       -0.9435708279	      571.8616319382	       25.4026805417	        1.3025250141	        0.0000000000	       -0.0589198924	        0.0000000000	        0.0000000000	        0.0000000000	        0.0000000000	        0.0000000000	        0.0000000000	
